inDegrees=no
num_controls=7
num_derivatives=13
num_iterations=114
num_multipliers=7
num_parameters=0
num_slacks=7
num_states=26
objective=0.431110
objective_accelerations=0.050161
objective_balance=0.006804
objective_effort=0.031186
objective_height=0.341788
objective_ligament=0.001171
solver_duration=1671.199216
status=Solve_Succeeded
success=true
DataType=double
version=3
OpenSimVersion=4.5
endheader
time	/jointset/ground_pelvis/pelvis_tilt/value	/jointset/ground_pelvis/pelvis_tx/value	/jointset/ground_pelvis/pelvis_ty/value	/jointset/hip_l/hip_flexion_l/value	/jointset/hip_l/hip_adduction_l/value	/jointset/hip_l/hip_rotation_l/value	/jointset/back/lumbar_extension/value	/jointset/patellofemoral_l/patellar_flexion_l/value	/jointset/knee_l/knee_flexion_l/value	/jointset/knee_l/knee_adduction_l/value	/jointset/knee_l/knee_rotation_l/value	/jointset/ankle_l/ankle_angle_l/value	/jointset/subtalar_l/subtalar_angle_l/value	/jointset/ground_pelvis/pelvis_tilt/speed	/jointset/ground_pelvis/pelvis_tx/speed	/jointset/ground_pelvis/pelvis_ty/speed	/jointset/hip_l/hip_flexion_l/speed	/jointset/hip_l/hip_adduction_l/speed	/jointset/hip_l/hip_rotation_l/speed	/jointset/back/lumbar_extension/speed	/jointset/patellofemoral_l/patellar_flexion_l/speed	/jointset/knee_l/knee_flexion_l/speed	/jointset/knee_l/knee_adduction_l/speed	/jointset/knee_l/knee_rotation_l/speed	/jointset/ankle_l/ankle_angle_l/speed	/jointset/subtalar_l/subtalar_angle_l/speed	/forceset/tau_hip_flexion_l	/forceset/tau_hip_adduction_l	/forceset/tau_hip_rotation_l	/forceset/tau_knee_flexion_l	/forceset/tau_ankle_angle_l	/forceset/tau_subtalar_angle_l	/forceset/tau_lumbar_extension	lambda_cid13_p0	lambda_cid13_p1	lambda_cid13_p2	lambda_cid13_p3	lambda_cid13_p4	lambda_cid13_p5	lambda_cid14_p0	/jointset/ground_pelvis/pelvis_tilt/accel	/jointset/ground_pelvis/pelvis_tx/accel	/jointset/ground_pelvis/pelvis_ty/accel	/jointset/hip_l/hip_flexion_l/accel	/jointset/hip_l/hip_adduction_l/accel	/jointset/hip_l/hip_rotation_l/accel	/jointset/back/lumbar_extension/accel	/jointset/patellofemoral_l/patellar_flexion_l/accel	/jointset/knee_l/knee_flexion_l/accel	/jointset/knee_l/knee_adduction_l/accel	/jointset/knee_l/knee_rotation_l/accel	/jointset/ankle_l/ankle_angle_l/accel	/jointset/subtalar_l/subtalar_angle_l/accel	gamma_cid13_p0	gamma_cid13_p1	gamma_cid13_p2	gamma_cid13_p3	gamma_cid13_p4	gamma_cid13_p5	gamma_cid14_p0
0	-0.1566583538755202	0.05726864790410472	0.8978825772689477	0.3774924667018715	-0.2607968873912299	-0.2443288555399877	-0.01265067647494873	0.03223648243721471	0.03223648243721463	-0.1745325229225772	0.1471994238664744	-0.04231377076293093	-0.01125570471892297	0	0	0	0	0	0	0	0	0	0	0	0	0	0.1547379413790964	-0.08452790396141981	-0.05154505145042233	-0.3409567126344833	0.3849897744950062	-0.04994089870840616	-0.09164515341946887	82.04362997320492	3.167317779777772	3.840654320350262	-35.76769954571481	-590.9183685680138	-70.79208949361562	-38.24691498076233	-2.858408898134658	-1.266328765100459	-0.9553688072024621	10.7953510332488	-1.346008025852855	3.559457696903943	-5.490323338958619	10.72852257352771	10.72852257353436	0.04064499521183178	0.2045606833900541	3.0503084802997	-0.6685604379747396	-9.771540685889778e-08	1.853831006465525e-07	1.681560455494629e-07	5.770788027249055e-08	-5.342800746321946e-08	-9.744997062269615e-08	-2.205630797196303e-08
0.01	-0.1567942008172695	0.05720404877127822	0.8978358193145235	0.3780196193638184	-0.2608636995642637	-0.244153371818863	-0.01292627692234034	0.03276145380098974	0.03276145380098975	-0.1745322241610719	0.1472081455383992	-0.04216784713789079	-0.01129014399093397	-0.02690800582807275	-0.01308043090399125	-0.009333983918838312	0.1051132479949087	-0.01327949332838501	0.03475629725302504	-0.05477612446279206	0.1045882186208929	0.1045882186209103	7.939946244941304e-05	0.001921653974799093	0.02879501807485811	-0.006895432948183931	0.139863805118224	-0.0939975001348535	-0.04752509197803809	-0.3149842466931892	0.3413344883110411	-0.0265917573727901	-0.08136820325603582	68.80515501984007	-4.486522105757868	4.868151327638203	-25.64628912739817	-591.1937415688122	-84.75112765549015	-38.26213587648975	-2.567800773326117	-1.352979362280279	-0.9197828249255954	10.32170560339144	-1.306535267783172	3.382631623411564	-5.419662247607339	10.26306779751432	10.26306779751275	-0.00540956261825104	0.2125525028600853	2.735634187595493	-0.7012186657900398	-9.060212055004371e-08	1.293230436617613e-07	1.739785836875147e-07	5.245078023359628e-08	-1.402503461099047e-07	-6.757933590648563e-08	-2.710105784178732e-08
0.02	-0.157191288686936	0.05700382950756543	0.8976962475927708	0.3795883832898702	-0.2610608297268716	-0.243640541948426	-0.01373931966389345	0.0343201266092026	0.0343201266092026	-0.1745305308018169	0.147241400699739	-0.04174566618879874	-0.01139377438093676	-0.05224818558344391	-0.02712402617725634	-0.01856275346571989	0.2083222528209986	-0.02606359791484053	0.06746922986244126	-0.1074884588322988	0.2067402888875554	0.2067402888875564	0.0002789195498384063	0.004906697883008132	0.05525146481038126	-0.01383822359836066	0.1249896688573515	-0.1034670963082872	-0.04350513250565426	-0.2890117807518949	0.2976792021270745	-0.003242616037173996	-0.07109125309260275	55.65316778583038	-12.1587022568217	5.902229594476037	-15.7500743977813	-590.1949887141342	-98.5993857301418	-38.30761169441558	-2.544843683594064	-1.458961638955226	-0.9343259328111151	10.41450239948503	-1.246930277466615	3.150784768182182	-5.077565320301676	10.24129290268164	10.24129290268153	0.06466912021269086	0.4172386700720433	2.582594212432706	-0.6780319783733008	-8.348883424118965e-08	7.326298667697017e-08	1.798011218255665e-07	4.7193680194702e-08	-2.270726847565898e-07	-3.770870119027512e-08	-3.214580771161161e-08
0.03	-0.1578355363165295	0.05666117942791565	0.897464859264784	0.3821780349847739	-0.2613831338039345	-0.2428083001489964	-0.01506902775890047	0.03688785004092237	0.03688785004092227	-0.1745260887402926	0.1473074863345998	-0.04106699215972333	-0.01156612105998199	-0.0764696203092549	-0.04128270314128432	-0.0276972767570906	0.3090666523243592	-0.03830610121647118	0.09889838079295349	-0.158126174323318	0.306335193793201	0.3063351937932018	0.0006209381757609558	0.008234032176961508	0.08044270252244959	-0.02055699933612881	0.1214907510602981	-0.09746335988270163	-0.04323104500187671	-0.2875312646651452	0.2978899017351938	-0.007723393123337239	-0.06790720390342495	55.56101320072072	-10.33603943131564	5.770958487213316	-16.45440982020927	-590.4845801164417	-94.329161298796	-38.3821973871706	-2.341042181092008	-1.375818315923121	-0.9004159864530834	9.823182195346176	-1.199265120041283	3.126840733525476	-5.007826786631364	9.748215184572148	9.748215184572187	0.02071517237082669	0.2789951116637456	2.481287547923235	-0.6577145412093439	-1.187677331194127e-07	1.081402567679562e-07	2.306025632202523e-07	7.797607773571233e-08	-3.587929573456324e-07	-4.134627273272431e-08	-4.029432711666466e-08
0.04	-0.1587180480561845	0.05618064306046627	0.8971426456120529	0.3857588853686282	-0.2618251338667197	-0.2416641947446536	-0.01689530343344358	0.04043744770171177	0.04043744770171175	-0.1745178771047914	0.1474045481729216	-0.04013762595406135	-0.01180343833035104	-0.09990100759575621	-0.05470128373717452	-0.03672781841458245	0.4065619906111038	-0.0500027950593054	0.1298419508450551	-0.2068019747395149	0.4031151347014918	0.4031151347014929	0.001032834345234986	0.01110193857518517	0.1053899001276914	-0.02683234186312787	0.1179918332632446	-0.09145962345711611	-0.0429569574980988	-0.2860507485783956	0.298100601343313	-0.01220417020950048	-0.064723154714247	55.54957102174802	-8.527140723587973	5.641465279407277	-17.36689542979546	-589.6034717651447	-89.94730128215667	-38.48387102468697	-2.386834195731609	-1.310942365327649	-0.9135296060353404	9.764690156161823	-1.137768385707334	3.053668592500052	-4.685182305337221	9.678300103210672	9.678300103210679	0.07864462892298719	0.3253530909260862	2.533786191067403	-0.5893453362194849	-1.549206976715961e-07	1.448925232934944e-07	2.823314046820853e-07	1.095015577010506e-07	-4.914389605314246e-07	-4.567473512586753e-08	-4.850684176986675e-08
0.05	-0.1598310029038838	0.05556905583886464	0.8967303771940777	0.3902996898485732	-0.2623811271406424	-0.2402139088133297	-0.01919774340582841	0.04494147939380282	0.04494147939380275	-0.1745049803898533	0.1475289858537334	-0.03896049151827034	-0.01210119548809079	-0.122528413323702	-0.06754689489491929	-0.04572798319217188	0.501108761072249	-0.06108163085176225	0.1600523629400582	-0.2533184547422255	0.4972424419051485	0.4972424419051492	0.001570693882466013	0.01379069234177483	0.1299304829116919	-0.03264021089034152	0.1110520503459344	-0.08873459960196201	-0.04174965820212727	-0.278978799206618	0.287958341133873	-0.01008551067974415	-0.05926052625808331	52.42707114551283	-8.970826448256748	5.792475032658212	-15.74434657683766	-588.8626418064458	-89.75416650880724	-38.61011608510563	-2.176469788616189	-1.260958482704004	-0.8936769750582469	9.226130336497508	-1.075843338109604	2.980255093146643	-4.579746098451381	9.212641524940626	9.212641524940578	0.04503640883981276	0.2413608596640092	2.39820818104152	-0.564729529686648	-1.680820194369091e-07	1.533417056432784e-07	2.954966536270699e-07	1.248740306400149e-07	-5.683818829744879e-07	-3.705633370097669e-08	-5.057311786792278e-08
0.06	-0.1611653870143206	0.05483109490734434	0.8962280237160393	0.395771254002211	-0.2630444892049086	-0.2384664132460264	-0.02195432122838302	0.05037332325712991	0.05037332325712989	-0.1744859691209996	0.147680455940239	-0.03754114848284431	-0.01245467570484555	-0.1441868601432538	-0.07997602572090853	-0.054744830427261	0.5927139253496593	-0.0714765531280087	0.1892838780409077	-0.2976295447734713	0.5886775689487037	0.5886775689487043	0.002255745128363211	0.01650841971390882	0.1538316200546983	-0.0379769536661289	0.1041122674286243	-0.0860095757468079	-0.04054235890615546	-0.2719068498348404	0.2778160809244332	-0.007966851149987814	-0.05379789780191966	49.37610458617262	-9.426651492733898	5.944982433842929	-14.31358451317743	-587.0778554402314	-89.46235026376758	-38.75840841319925	-2.193042414052823	-1.227646298976543	-0.9168660975352514	9.176368919414797	-1.000985682465239	2.857889193669163	-4.244104311044167	9.139864071190427	9.139864071190434	0.1080829706562292	0.3311478120349729	2.405897062868578	-0.4951200859342344	-1.802752720322487e-07	1.605991791856623e-07	3.070381723608188e-07	1.395663769673424e-07	-6.42979412544173e-07	-2.78928011679581e-08	-5.238060497418318e-08
0.07000000000000001	-0.1627122214371911	0.05397097992479397	0.8956351838675578	0.4021452024224288	-0.263808427580199	-0.2364313121456767	-0.025142883601851	0.05670655302044294	0.05670655302044304	-0.1744595893398323	0.147859253094497	-0.03588580731366436	-0.01285920103464678	-0.1650452904216244	-0.09196886303265067	-0.06384066572415796	0.6815984113059942	-0.08120460607831299	0.2176002086919743	-0.339749395806019	0.677500237234961	0.6775002372349609	0.003006249025295504	0.01922602536592145	0.1771237752455798	-0.04286096023008409	0.09789606170252595	-0.0826150465892499	-0.03959563701480259	-0.2669468511018992	0.2705623837049517	-0.007223557060647975	-0.0488383708769841	47.17477300935203	-9.439212720471755	6.03286433761022	-13.37955736478853	-585.6857925663567	-88.32946340845008	-38.92578516301744	-2.012039956665825	-1.17335819243529	-0.9087007141374389	8.672866357210783	-0.9427722164854001	2.798039656073682	-4.14589538224197	8.683256733531397	8.683256733531083	0.05649415665262884	0.2382748621510824	2.273936829774641	-0.4750263273872589	-1.9063109190506e-07	1.438870611088309e-07	3.357163384998044e-07	1.492449645964323e-07	-6.931570126583003e-07	-4.080124637562621e-08	-5.758551557902355e-08
